# xmcd CD database file
#
# Track frame offsets:
#	150
#	34163
#	72120
#	95293
#	127698
#	149842
#	192340
#	215062
#	242760
#	277195
#	304991
#	324912
#
# Disc length: 4676 seconds
#
# Revision: 0
# Processed by: cddbd v1.5.2PL0 Copyright (c) Steve Scherf et al.
# Submitted via: CDex 1.70beta2
#
DISCID=b712420c
DTITLE=Lee Child - 61 Hours Disc 3
DYEAR=2010
DGENRE=Audio Book
TTITLE0=61 Hours Disc 3-01
TTITLE1=61 Hours Disc 3-02
TTITLE2=61 Hours Disc 3-03
TTITLE3=61 Hours Disc 3-04
TTITLE4=61 Hours Disc 3-05
TTITLE5=61 Hours Disc 3-06
TTITLE6=61 Hours Disc 3-07
TTITLE7=61 Hours Disc 3-08
TTITLE8=61 Hours Disc 3-09
TTITLE9=61 Hours Disc 3-10
TTITLE10=61 Hours Disc 3-11
TTITLE11=61 Hours Disc 3-12
EXTD=YEAR: 2010
EXTT0=
EXTT1=
EXTT2=
EXTT3=
EXTT4=
EXTT5=
EXTT6=
EXTT7=
EXTT8=
EXTT9=
EXTT10=
EXTT11=
PLAYORDER=
